<svg xmlns="http://www.w3.org/2000/svg" xmlns:xlink="http://www.w3.org/1999/xlink" width="1920" zoomAndPan="magnify" viewBox="0 0 1440 809.999993" height="1080" preserveAspectRatio="xMidYMid meet" version="1.0"><defs><clipPath id="a6054d7161"><path d="M 504 23 L 949 23 L 949 809.859375 L 504 809.859375 Z M 504 23 " clip-rule="nonzero"/></clipPath></defs><g clip-path="url(#a6054d7161)"><path fill="#f9cb72" d="M 827.410156 145.566406 C 827.503906 145.566406 827.503906 145.707031 827.410156 145.707031 C 827.316406 145.707031 827.316406 145.566406 827.410156 145.566406 Z M 914.257812 164.484375 C 910.339844 164.964844 906.65625 164.378906 904.011719 161.183594 C 901.214844 157.816406 899.601562 153.488281 897.449219 149.710938 C 895.144531 145.660156 892.617188 141.742188 889.84375 137.988281 C 888.453125 136.09375 886.988281 134.257812 885.457031 132.476562 C 884.183594 130.992188 882.742188 129.601562 882.03125 127.742188 C 881.515625 126.382812 881.234375 124.371094 882.507812 123.320312 C 883.785156 122.253906 885.539062 123.050781 886.875 123.5625 C 890.535156 124.96875 893.984375 126.921875 897.203125 129.144531 C 903.425781 133.4375 908.925781 138.886719 913.242188 145.113281 C 913.335938 145.125 913.429688 145.171875 913.488281 145.277344 C 914.28125 146.503906 915.089844 147.894531 916.085938 148.960938 C 916.890625 149.828125 917.839844 150.480469 918.527344 151.464844 C 919.78125 153.253906 920.613281 155.382812 920.855469 157.558594 C 921.066406 159.464844 920.671875 161.488281 919.183594 162.8125 C 917.839844 164.015625 916.003906 164.273438 914.257812 164.484375 Z M 914.257812 162.425781 C 915.757812 162.226562 917.535156 161.957031 918.34375 160.507812 C 919.125 159.089844 918.867188 157.253906 918.472656 155.769531 C 917.945312 153.839844 916.925781 152.015625 916.074219 150.210938 C 915.746094 149.523438 915.3125 148.914062 914.84375 148.304688 C 914.808594 148.292969 914.773438 148.292969 914.738281 148.257812 C 909.277344 141.941406 903.472656 135.871094 896.558594 131.132812 C 893.726562 129.191406 890.746094 127.542969 887.621094 126.125 C 886.804688 125.75 885.972656 125.378906 885.128906 125.074219 C 884.054688 124.6875 883.375 124.933594 883.398438 126.113281 C 883.433594 128.101562 885.046875 129.578125 886.265625 130.980469 C 891.167969 136.65625 895.53125 142.773438 899.285156 149.253906 C 901.15625 152.492188 902.65625 156.074219 904.867188 159.101562 C 907.238281 162.34375 910.480469 162.929688 914.257812 162.425781 Z M 927.910156 178.558594 C 928.917969 181.878906 929.011719 185.433594 928.882812 188.875 C 928.765625 191.835938 928.871094 202.703125 923.089844 200.304688 C 920.796875 199.355469 919.300781 196.640625 918.273438 194.511719 C 917.03125 191.953125 916.179688 189.226562 915.511719 186.464844 C 914.820312 183.632812 914.128906 180.710938 913.921875 177.808594 C 913.757812 175.539062 913.910156 172.507812 916.027344 171.105469 C 918.121094 169.726562 921.347656 170.847656 923.359375 171.925781 C 924.765625 172.671875 925.746094 173.785156 926.402344 175.105469 C 927.058594 176.183594 927.546875 177.363281 927.910156 178.558594 Z M 926.695312 184.886719 C 926.625 182.628906 926.320312 180.40625 925.59375 178.265625 C 925.246094 177.234375 924.8125 176.242188 924.191406 175.339844 C 923.757812 174.707031 923.171875 173.773438 922.566406 173.316406 C 922.542969 173.292969 922.519531 173.269531 922.496094 173.246094 C 922.144531 173.117188 921.792969 172.988281 921.429688 172.882812 C 920.285156 172.542969 918.679688 171.925781 917.523438 172.414062 C 916.214844 172.964844 916.003906 174.554688 916.027344 175.808594 C 916.0625 177.890625 916.609375 180.019531 916.984375 182.066406 C 917.394531 184.253906 917.851562 186.441406 918.472656 188.582031 C 918.890625 190.042969 922.648438 200.597656 925.105469 198 C 926.320312 196.710938 926.261719 193.953125 926.402344 192.3125 C 926.613281 189.855469 926.789062 187.378906 926.695312 184.886719 Z M 577.554688 79.007812 C 577.460938 79.007812 577.460938 79.144531 577.554688 79.144531 C 577.644531 79.144531 577.644531 79.007812 577.554688 79.007812 Z M 580.253906 84.117188 C 581.425781 85.476562 581.34375 87.488281 580.59375 89.019531 C 579.4375 91.417969 577.34375 93.441406 575.820312 95.617188 C 574.289062 97.804688 572.851562 100.050781 571.503906 102.355469 C 568.730469 107.117188 566.355469 112.125 564.449219 117.292969 C 562.894531 121.503906 561.492188 125.9375 557.359375 128.3125 C 553.59375 130.488281 548.667969 130.863281 544.410156 130.921875 C 540.128906 130.980469 536.082031 129.132812 535.800781 124.371094 C 535.683594 122.300781 536.304688 119.984375 537.578125 118.335938 C 538.445312 117.210938 539.507812 116.265625 540.199219 115.011719 C 540.796875 113.9375 541.453125 112.894531 542.023438 111.796875 C 542.105469 111.632812 542.246094 111.597656 542.375 111.621094 C 547.359375 103.464844 554.25 96.519531 562.027344 91.007812 C 566.03125 88.175781 570.289062 85.707031 574.804688 83.777344 C 576.558594 83.03125 578.816406 82.445312 580.253906 84.117188 Z M 579.542969 86.785156 C 579.542969 83.324219 575.285156 85.71875 573.703125 86.515625 C 571.902344 87.417969 570.113281 88.375 568.371094 89.394531 C 564.671875 91.535156 561.152344 93.980469 557.863281 96.707031 C 551.40625 102.050781 545.839844 108.285156 540.9375 115.082031 C 540.902344 115.128906 540.855469 115.152344 540.808594 115.164062 C 539.871094 116.394531 539.34375 117.667969 538.832031 119.117188 C 538.082031 121.246094 537.238281 123.539062 538.117188 125.773438 C 539.8125 130.136719 546.738281 128.886719 550.320312 128.394531 C 554.566406 127.796875 558.261719 126.253906 560.378906 122.324219 C 561.410156 120.417969 562.0625 118.324219 562.847656 116.3125 C 563.65625 114.230469 564.519531 112.183594 565.46875 110.15625 C 567.398438 106.027344 569.609375 102.027344 572.101562 98.214844 C 573.328125 96.34375 574.617188 94.519531 575.960938 92.726562 C 577.214844 91.042969 579.542969 88.984375 579.542969 86.785156 Z M 551.078125 147.835938 C 550.449219 150.960938 549.535156 154.109375 548.386719 157.078125 C 547.3125 159.898438 545.957031 162.601562 544.082031 164.976562 C 542.292969 167.257812 539.871094 169.679688 536.855469 170.027344 C 533.964844 170.367188 531.953125 168.355469 531.132812 165.757812 C 530.164062 162.683594 529.929688 159.054688 529.90625 155.851562 C 529.882812 152.75 530.382812 149.59375 531.859375 146.832031 C 532.957031 143.929688 535.414062 142.011719 538.316406 141.054688 C 541.464844 140.011719 545.863281 138.515625 548.949219 140.457031 C 551.464844 142.035156 551.605469 145.21875 551.078125 147.835938 Z M 546.667969 141.636719 C 545.242188 141.214844 543.675781 141.554688 542.246094 141.824219 C 540.996094 142.070312 539.753906 142.339844 538.527344 142.691406 C 538.515625 142.703125 538.515625 142.703125 538.503906 142.714844 C 536.316406 143.894531 534.480469 146.175781 533.4375 148.398438 C 532.175781 151.136719 531.976562 154.226562 532.152344 157.195312 C 532.304688 159.757812 532.511719 162.507812 533.273438 164.976562 C 533.613281 166.085938 534.210938 167.304688 535.367188 167.734375 C 536.527344 168.167969 537.777344 167.65625 538.773438 167.058594 C 542.902344 164.542969 545.230469 159.371094 546.679688 154.972656 C 547.453125 152.632812 548.097656 150.222656 548.609375 147.8125 C 549.113281 145.5 549.523438 142.480469 546.667969 141.636719 Z M 715.96875 40.90625 C 715.875 40.90625 715.875 41.046875 715.96875 41.046875 C 716.0625 41.046875 716.0625 40.90625 715.96875 40.90625 Z M 760.085938 54.800781 C 759.828125 52.976562 759.792969 49.304688 762.25 48.847656 C 764.519531 48.425781 766.90625 51.492188 768.332031 52.894531 C 772.296875 56.769531 775.773438 61.191406 778.917969 65.742188 C 785.285156 74.921875 790.347656 85.066406 794.023438 95.628906 C 794.128906 95.652344 794.222656 95.722656 794.257812 95.863281 C 794.886719 97.933594 795.519531 100.167969 796.421875 102.132812 C 797.191406 103.816406 798.1875 105.351562 798.796875 107.105469 C 799.894531 110.25 800.503906 113.691406 800.328125 117.023438 C 800.1875 119.703125 799.460938 122.921875 796.839844 124.242188 C 794.640625 125.355469 791.964844 124.605469 789.71875 124.007812 C 787.519531 123.421875 785.410156 122.523438 783.632812 121.0625 C 781.351562 119.175781 779.914062 116.558594 778.871094 113.820312 C 777.644531 110.613281 776.941406 107.234375 776.171875 103.898438 C 775.363281 100.390625 774.484375 96.890625 773.539062 93.40625 C 771.667969 86.539062 769.503906 79.753906 767.035156 73.085938 C 765.816406 69.824219 764.542969 66.582031 763.148438 63.390625 C 761.933594 60.605469 760.503906 57.867188 760.085938 54.800781 Z M 763.605469 60.488281 C 768.578125 71.683594 772.671875 83.253906 775.890625 95.066406 C 777.515625 101.035156 778.5 107.292969 780.699219 113.070312 C 781.703125 115.703125 783.164062 118.277344 785.492188 119.949219 C 787.214844 121.175781 789.226562 121.808594 791.261719 122.277344 C 793.332031 122.757812 795.789062 123.273438 797.121094 121.152344 C 798.46875 119.011719 798.421875 116.042969 798.222656 113.609375 C 797.988281 110.648438 797.109375 107.820312 796.539062 104.929688 C 796.257812 103.546875 795.8125 102.238281 795.320312 100.929688 C 795.285156 100.90625 795.25 100.894531 795.226562 100.847656 C 790.183594 88.914062 784.546875 77.179688 777.046875 66.570312 C 774.167969 62.5 771 58.6875 767.546875 55.09375 C 766.71875 54.242188 765.875 53.386719 765.007812 52.566406 C 764.554688 52.136719 764.027344 51.503906 763.476562 51.210938 C 762.449219 50.671875 762.132812 51.105469 761.910156 52.007812 C 761.171875 54.941406 762.449219 57.867188 763.605469 60.488281 Z M 945.273438 215.347656 C 940.535156 236.007812 930.484375 255.378906 917.59375 272.117188 C 904.28125 289.421875 888.652344 304.875 872.835938 319.871094 C 872.496094 320.199219 872.121094 320.328125 871.746094 320.339844 C 871.710938 320.410156 871.664062 320.480469 871.640625 320.546875 C 871.5 320.898438 871.511719 320.886719 871.59375 321.179688 C 871.980469 322.398438 872.917969 323.144531 873.675781 324.128906 C 874.414062 325.085938 875.058594 326.164062 875.105469 327.402344 C 875.164062 328.785156 874.449219 330.046875 873.546875 331.042969 C 871.734375 333.03125 868.902344 334.363281 866.355469 335.089844 C 865.898438 335.21875 865.417969 335.324219 864.949219 335.417969 C 864.984375 335.546875 865.007812 335.6875 864.996094 335.839844 C 864.703125 342.960938 864.074219 350.039062 863.429688 357.140625 C 863.277344 358.871094 863.113281 360.589844 862.960938 362.324219 C 862.832031 363.703125 862.609375 365.164062 862.785156 366.558594 C 863.136719 369.339844 865.804688 369.445312 868.085938 369.738281 C 872.871094 370.371094 877.199219 372.898438 879.457031 377.308594 C 881.011719 380.347656 881.339844 383.941406 880.496094 387.226562 C 885.550781 390.421875 888.804688 396.738281 888.816406 402.632812 C 888.839844 412.226562 881.328125 421.1875 873.304688 425.65625 C 872.953125 425.855469 872.625 425.398438 872.894531 425.117188 C 878.800781 418.613281 886.300781 411.082031 885.1875 401.453125 C 884.753906 397.734375 882.390625 393.289062 879.011719 390.855469 C 878.917969 391.007812 878.847656 391.171875 878.753906 391.324219 C 877.445312 393.324219 875.574219 395.136719 873.210938 395.804688 C 870.824219 396.46875 868.25 395.6875 866.75 393.683594 C 865.324219 391.765625 865.488281 389.136719 867.148438 387.414062 C 868.753906 385.753906 871.160156 385.132812 873.40625 385.132812 C 874.554688 385.132812 875.664062 385.285156 876.71875 385.566406 C 877.164062 383.214844 876.789062 380.722656 875.539062 378.640625 C 874.566406 377.039062 873.175781 375.765625 871.523438 374.886719 C 869.816406 373.972656 867.945312 373.808594 866.0625 373.554688 C 864.167969 373.285156 862.234375 372.78125 860.820312 371.414062 C 859.277344 369.925781 858.75 367.773438 858.726562 365.691406 C 858.703125 363.328125 859.078125 360.941406 859.300781 358.601562 C 859.546875 356.015625 859.777344 353.421875 860.023438 350.835938 C 860.457031 346.203125 860.996094 341.605469 861.628906 336.996094 C 859.242188 352.191406 855.25 367.210938 847.683594 380.699219 C 842.40625 390.105469 835.480469 398.480469 827.410156 405.617188 C 819.640625 412.484375 810.984375 418.238281 802.234375 423.761719 C 791.214844 430.710938 780.335938 438.007812 768.695312 443.882812 C 753.988281 451.296875 738.933594 457.90625 724.683594 466.214844 C 724.625 466.378906 724.566406 466.554688 724.507812 466.714844 C 725.046875 466.703125 725.585938 466.703125 726.148438 466.75 C 728.6875 466.925781 731.246094 467.441406 733.609375 468.414062 C 738.371094 470.355469 742.199219 474.050781 744.851562 478.414062 C 745.296875 479.152344 744.1875 479.773438 743.71875 479.082031 C 741.003906 475.09375 736.851562 472.472656 732.394531 470.742188 C 729.609375 469.664062 726.695312 469.113281 723.75 468.949219 C 723.726562 469.019531 723.703125 469.078125 723.679688 469.148438 C 729.761719 471.394531 734.851562 476.90625 736.054688 483.199219 C 736.300781 484.453125 734.957031 485.84375 733.714844 485 C 730.699219 482.964844 727.691406 480.929688 724.671875 478.882812 C 722.824219 477.632812 720.941406 476.34375 719.140625 474.964844 C 716.765625 481.84375 715.898438 489.105469 716.578125 496.359375 C 716.882812 499.625 717.550781 502.851562 718.496094 505.988281 C 718.964844 507.542969 719.644531 509.015625 720.121094 510.5625 C 720.519531 511.847656 719.644531 513.183594 719.210938 514.398438 C 718.953125 515.136719 718.71875 515.871094 718.496094 516.621094 C 718.636719 517.066406 718.601562 517.59375 718.355469 517.988281 C 718.203125 518.246094 718.050781 518.515625 717.898438 518.773438 C 716.835938 522.949219 716.273438 527.253906 716.203125 531.570312 C 716.039062 543.316406 719.550781 554.945312 726.359375 564.523438 C 727.375 565.953125 725.304688 567.378906 724.078125 566.457031 C 725.199219 567.707031 726.371094 568.921875 727.597656 570.082031 C 728.859375 571.273438 727.210938 573.378906 725.75 572.480469 C 720.625 569.296875 713.558594 569.695312 707.898438 571.964844 C 704.550781 580.492188 709.242188 589.769531 713.371094 597.105469 C 715.335938 600.589844 717.339844 604.042969 718.882812 607.738281 C 720.460938 611.503906 721.445312 615.445312 721.972656 619.496094 C 723.058594 627.824219 722.4375 636.257812 721.550781 644.574219 C 719.65625 662.109375 718.332031 679.679688 718.214844 697.320312 C 718.015625 727.785156 720.671875 758.421875 725.808594 788.496094 C 727.550781 795.445312 729.503906 802.335938 731.644531 809.144531 C 731.714844 809.367188 731.386719 809.449219 731.304688 809.238281 C 730.136719 806.21875 729.011719 803.191406 727.9375 800.136719 C 728.136719 801.191406 728.335938 802.242188 728.546875 803.285156 C 728.59375 803.507812 728.265625 803.597656 728.207031 803.378906 C 727.292969 800.03125 726.441406 796.664062 725.609375 793.292969 C 720.460938 777.546875 716.625 761.382812 714.367188 744.957031 C 711.699219 725.550781 711.054688 705.886719 712.308594 686.335938 C 712.917969 676.769531 713.933594 667.199219 715.488281 657.734375 C 716.988281 648.691406 719.199219 639.566406 718.683594 630.339844 C 718.425781 625.648438 717.316406 621.0625 715.105469 616.898438 C 712.988281 612.886719 710.050781 609.398438 707.148438 605.9375 C 701.917969 599.703125 695.695312 592.683594 695.589844 584.050781 C 695.507812 577.207031 699.90625 572.351562 705.6875 569.683594 C 706.679688 567.636719 708.109375 565.800781 710.097656 564.324219 C 711.992188 562.921875 714.214844 561.976562 716.496094 561.601562 C 713.265625 556.605469 710.925781 551.058594 709.898438 545.152344 C 708.214844 535.546875 710.0625 525.839844 714.824219 517.394531 C 714.859375 517.277344 714.882812 517.160156 714.917969 517.042969 C 708.0625 505.367188 707.488281 491.492188 713.710938 479.363281 C 713.898438 479 714.144531 478.765625 714.425781 478.625 C 714.660156 477.679688 714.917969 476.730469 715.210938 475.792969 C 714.074219 477.667969 712.765625 479.433594 711.195312 481 C 708.574219 483.621094 705.335938 485.996094 701.835938 487.269531 C 700.679688 487.691406 699.5 486.40625 699.847656 485.28125 C 701.277344 480.765625 704.246094 476.976562 708.144531 474.460938 C 706.644531 475.199219 705.160156 475.945312 703.699219 476.753906 C 701.789062 477.820312 699.917969 478.917969 698.09375 480.109375 C 696.339844 481.257812 694.679688 482.554688 692.851562 483.609375 C 692.28125 483.9375 691.8125 483.210938 692.1875 482.742188 C 693.601562 481.011719 695.367188 479.609375 697.113281 478.214844 C 698.796875 476.871094 700.515625 475.574219 702.304688 474.390625 C 705.957031 471.957031 709.886719 469.734375 714.0625 468.367188 C 714.308594 468.238281 714.554688 468.132812 714.8125 468.0625 C 715.328125 467.921875 715.839844 467.816406 716.355469 467.699219 C 717.304688 467.488281 718.25 467.253906 719.210938 467.054688 C 719.035156 467.007812 718.882812 466.890625 718.824219 466.660156 C 715.152344 453.160156 706.445312 442.617188 697.195312 432.511719 C 679.15625 412.824219 662.683594 391.730469 647.929688 369.46875 C 640.585938 358.390625 633.671875 347.035156 627.191406 335.429688 C 623.914062 329.542969 620.835938 323.554688 617.84375 317.519531 C 616.402344 314.617188 615.023438 311.671875 613.78125 308.675781 C 613.222656 307.316406 612.695312 305.949219 612.167969 304.570312 C 613.78125 310.382812 615.339844 316.21875 616.871094 322.070312 C 617.515625 324.503906 618.148438 326.925781 618.789062 329.359375 C 619.304688 331.3125 619.890625 333.277344 619.996094 335.300781 C 620.195312 339.371094 617.492188 342.003906 613.621094 342.589844 C 610.144531 343.113281 606.625 342.53125 603.160156 342.261719 C 599.523438 341.96875 595.894531 342.097656 592.410156 343.289062 C 590 344.121094 587.566406 345.582031 586.351562 347.898438 C 585.0625 350.34375 585.578125 353.304688 586.699219 355.714844 C 586.898438 356.132812 587.109375 356.542969 587.34375 356.953125 C 591.402344 356.578125 595.582031 357.046875 599.453125 358.136719 C 602.902344 359.09375 606.917969 360.71875 609.011719 363.785156 C 611.175781 366.933594 609.246094 370.230469 605.898438 371.261719 C 601.921875 372.488281 597.453125 370.945312 593.988281 368.980469 C 590.609375 367.0625 587.601562 364.371094 585.285156 361.222656 C 581.929688 361.832031 578.710938 363.152344 576.183594 365.492188 C 572.476562 368.921875 571.363281 373.671875 572.839844 378.441406 C 574.875 385.074219 579.613281 390.644531 584.417969 395.476562 C 590.269531 401.347656 596.878906 406.285156 603.3125 411.476562 C 603.628906 411.734375 603.21875 412.191406 602.890625 412.015625 C 600.808594 410.929688 598.808594 409.710938 596.832031 408.449219 C 589.460938 403.757812 582.359375 398.351562 576.6875 391.648438 C 572.453125 386.644531 568.066406 380.082031 568.535156 373.203125 C 568.929688 367.328125 572.710938 362.417969 577.820312 359.703125 C 579.519531 358.800781 581.308594 358.136719 583.144531 357.667969 C 580.734375 352.402344 580.933594 346.238281 585.882812 342.285156 C 588.714844 340.015625 592.246094 338.84375 595.800781 338.351562 C 599.933594 337.78125 603.96875 338.351562 608.097656 338.644531 C 610.519531 338.820312 615.855469 339.5 615.972656 335.898438 C 616.027344 333.964844 615.316406 331.988281 614.835938 330.140625 C 614.179688 327.613281 613.515625 325.097656 612.859375 322.574219 C 610.929688 315.214844 609.046875 307.855469 607.265625 300.464844 C 606.542969 300.570312 605.816406 300.640625 605.089844 300.660156 C 603.769531 300.707031 602.191406 300.753906 600.972656 300.195312 C 600.398438 299.925781 599.980469 299.503906 599.6875 299.011719 C 598.796875 298.789062 597.933594 298.417969 597.03125 298.21875 C 595.847656 297.960938 594.65625 297.878906 593.449219 297.902344 C 592.597656 297.914062 592.105469 296.964844 592.503906 296.25 C 593.90625 293.714844 594.925781 290.695312 594.222656 287.769531 C 593.941406 286.613281 593.429688 285.417969 592.667969 284.496094 C 592.539062 284.332031 592.375 284.167969 592.222656 284.015625 C 588.011719 281.558594 583.859375 279.007812 579.777344 276.328125 C 562.90625 265.285156 547.148438 252.054688 534.386719 236.394531 C 521.644531 220.777344 511.820312 202.65625 507.292969 182.96875 C 502.847656 163.617188 503 142.960938 509.152344 123.996094 C 515.058594 105.804688 526.441406 89.992188 542.152344 79.042969 C 557 68.6875 574.898438 62.96875 592.914062 61.914062 C 611.617188 60.828125 630.394531 65.121094 646.691406 74.410156 C 648.164062 75.25 649.605469 76.152344 651.019531 77.0625 C 657.429688 62.617188 667.503906 50.089844 680.605469 40.964844 C 695.4375 30.621094 713.335938 24.902344 731.339844 23.847656 C 750.046875 22.761719 768.8125 27.054688 785.097656 36.34375 C 803.042969 46.578125 817.136719 62.488281 824.214844 81.964844 C 826.390625 87.953125 827.890625 94.144531 828.789062 100.425781 C 835.679688 98.554688 842.769531 97.40625 849.871094 96.996094 C 868.578125 95.910156 887.351562 100.203125 903.648438 109.492188 C 921.605469 119.738281 935.703125 135.648438 942.792969 155.136719 C 949.742188 174.332031 949.800781 195.601562 945.273438 215.347656 Z M 590.1875 360.789062 C 591.214844 361.902344 592.363281 362.917969 593.554688 363.808594 C 596.386719 365.902344 600.363281 368.089844 604.027344 367.46875 C 604.648438 367.363281 605.886719 367.117188 605.792969 366.394531 C 605.652344 365.339844 603.6875 364.300781 602.914062 363.855469 C 599.769531 362.078125 596 361.1875 592.421875 360.894531 C 591.671875 360.835938 590.9375 360.800781 590.1875 360.789062 Z M 875.222656 389.148438 C 874.0625 388.9375 872.859375 388.960938 871.605469 389.320312 C 870.425781 389.660156 868.835938 390.960938 870.71875 391.753906 C 872.402344 392.480469 874.214844 390.621094 875.070312 389.390625 C 875.128906 389.308594 875.164062 389.230469 875.222656 389.148438 Z M 649.207031 101.699219 C 646.046875 120.5 648.304688 140.128906 654.632812 158.039062 C 661.117188 176.40625 672.253906 193.085938 685.378906 207.347656 C 698.46875 221.558594 713.535156 233.65625 729.785156 244.066406 C 729.9375 244.089844 730.089844 244.125 730.253906 244.183594 C 730.910156 244.429688 731.609375 244.675781 732.183594 245.085938 C 733.433594 245.984375 734.371094 247.203125 734.875 248.664062 C 734.957031 248.898438 734.992188 249.132812 735.050781 249.367188 C 735.449219 249.367188 735.84375 249.34375 736.242188 249.355469 C 737.121094 249.355469 737.996094 249.4375 738.886719 249.4375 C 740.535156 249.4375 742.234375 249.261719 743.847656 248.875 C 745.34375 248.511719 746.773438 247.984375 748.152344 247.308594 C 748.890625 246.945312 749.648438 246.628906 750.386719 246.265625 C 750.761719 246.078125 751.089844 245.84375 751.40625 245.574219 C 751.359375 245.144531 751.484375 244.675781 751.90625 244.277344 C 755.664062 240.710938 759.382812 237.105469 763.054688 233.445312 C 770.53125 226.003906 777.820312 218.332031 784.476562 210.140625 C 791.132812 201.964844 797.226562 193.378906 802.796875 184.429688 C 813.40625 167.386719 821.140625 148.527344 823.398438 128.464844 C 825.550781 109.292969 823.128906 89.324219 813.640625 72.28125 C 804.117188 55.175781 787.984375 42.238281 769.816406 35.253906 C 753.789062 29.089844 736.03125 27.710938 719.1875 30.914062 C 702.445312 34.097656 686.417969 41.628906 673.996094 53.398438 C 660.472656 66.207031 652.269531 83.453125 649.207031 101.699219 Z M 719.679688 466.949219 C 719.839844 466.9375 720.003906 466.960938 720.15625 466.996094 C 720.097656 466.777344 720.039062 466.566406 719.980469 466.34375 C 719.980469 466.390625 719.980469 466.425781 719.980469 466.472656 C 719.957031 466.695312 719.839844 466.855469 719.679688 466.949219 Z M 734.078125 425.175781 C 741.929688 401.136719 748.679688 376.792969 751.929688 351.699219 C 743.976562 358.042969 735.613281 363.855469 726.988281 369.191406 C 726.976562 369.214844 726.953125 369.238281 726.917969 369.238281 C 726.90625 369.238281 726.90625 369.238281 726.894531 369.238281 C 726.007812 369.785156 725.128906 370.347656 724.242188 370.886719 C 724.078125 371.0625 723.925781 371.238281 723.785156 371.425781 C 723.035156 372.40625 722.519531 373.625 722.214844 374.828125 C 721.421875 377.964844 722.296875 381.191406 723.667969 384.023438 C 724.007812 384.726562 723.609375 385.707031 722.71875 385.671875 C 721.550781 385.625 720.402344 385.695312 719.257812 385.953125 C 718.296875 386.164062 717.375 386.597656 716.414062 386.832031 C 716.003906 387.53125 715.359375 388.058594 714.472656 388.292969 C 712.566406 388.796875 710.296875 388.65625 708.238281 388.1875 C 709.558594 393.871094 710.144531 399.757812 711.066406 405.523438 C 712.742188 416.003906 714.601562 426.476562 716.507812 436.910156 C 718.085938 445.578125 719.863281 454.1875 721.960938 462.738281 C 725.785156 450.152344 729.996094 437.683594 734.078125 425.175781 Z M 700.621094 380.164062 C 701.113281 382.445312 704.269531 384 706.238281 384.75 C 707.488281 385.226562 708.808594 385.601562 710.144531 385.789062 C 710.820312 385.882812 711.5 385.917969 712.179688 385.917969 C 712.71875 385.917969 713.429688 385.988281 713.945312 385.777344 C 714.835938 385.414062 714.34375 383.8125 714.320312 383.0625 C 714.273438 381.917969 714.226562 380.570312 715.234375 379.789062 C 715.769531 379.355469 716.601562 379.742188 716.425781 380.476562 C 716.074219 381.917969 716.835938 383.167969 716.953125 384.574219 C 717.550781 384.339844 718.179688 384.152344 718.753906 384 C 719.527344 383.800781 720.296875 383.660156 721.09375 383.578125 C 720.144531 381.378906 719.421875 378.957031 719.503906 376.582031 C 719.421875 376.640625 719.339844 376.710938 719.257812 376.757812 C 718.367188 377.320312 717.386719 377.660156 716.367188 377.90625 C 714.273438 378.394531 712.167969 378.382812 710.085938 377.871094 C 708.121094 377.378906 706.261719 376.441406 704.679688 375.167969 C 704.351562 374.898438 704.058594 374.605469 703.792969 374.300781 C 703.78125 374.394531 703.78125 374.511719 703.757812 374.59375 C 703.464844 375.660156 702.714844 376.6875 701.953125 377.472656 C 701.183594 378.253906 700.363281 378.992188 700.621094 380.164062 Z M 752.339844 348.296875 C 752.46875 347.230469 752.597656 346.179688 752.703125 345.113281 C 754.152344 331.125 754.539062 317.039062 754.011719 302.976562 C 753.488281 288.988281 751.671875 275.136719 749.484375 261.320312 C 749.332031 261.378906 749.183594 261.4375 749.019531 261.496094 C 748.714844 267.789062 747.355469 274.421875 742.992188 279.195312 C 740.070312 282.402344 735.761719 284.460938 731.503906 284.296875 C 733.285156 288.765625 733.167969 293.949219 731.0625 298.3125 C 729.28125 301.984375 726.125 304.792969 722.414062 306.382812 C 724.324219 308.136719 725.609375 310.664062 725.996094 313.332031 C 726.894531 319.4375 723.175781 324.527344 720.0625 329.371094 C 719.832031 329.742188 719.269531 329.417969 719.46875 329.019531 C 721.644531 324.914062 724.054688 319.695312 723.210938 314.910156 C 722.613281 311.542969 719.886719 307.75 716.167969 307.796875 C 713.652344 307.832031 713.675781 304.019531 716.167969 303.914062 C 720.976562 303.703125 725.457031 300.847656 727.621094 296.542969 C 729.808594 292.203125 729.1875 286.542969 726.21875 282.707031 C 724.882812 280.996094 726.511719 278.585938 728.582031 279.640625 C 732.839844 281.816406 738.078125 279.171875 740.699219 275.617188 C 743.484375 271.835938 744.304688 267.019531 745.109375 262.398438 C 744.5625 262.46875 744.011719 262.515625 743.472656 262.539062 C 742.152344 262.585938 740.570312 262.632812 739.355469 262.070312 C 738.78125 261.800781 738.359375 261.378906 738.066406 260.886719 C 737.179688 260.667969 736.3125 260.292969 735.414062 260.09375 C 734.230469 259.835938 733.039062 259.753906 731.832031 259.777344 C 730.980469 259.789062 730.488281 258.839844 730.886719 258.128906 C 732.289062 255.589844 733.308594 252.570312 732.605469 249.648438 C 732.324219 248.488281 731.808594 247.296875 731.050781 246.371094 C 730.921875 246.207031 730.757812 246.042969 730.605469 245.890625 C 726.394531 243.433594 722.238281 240.882812 718.15625 238.207031 C 704.128906 229.023438 690.875 218.320312 679.480469 205.964844 C 674.429688 217.007812 668.015625 227.457031 660.648438 237.035156 C 653.570312 246.230469 645.835938 254.886719 637.777344 263.238281 C 642.269531 282.835938 651.113281 300.953125 661.792969 317.941406 C 673.503906 336.550781 687.90625 353.105469 702.996094 369.003906 C 703.394531 369.421875 703.511719 369.902344 703.453125 370.347656 C 703.78125 370.664062 704.128906 370.945312 704.527344 371.167969 C 705.230469 371.550781 705.957031 371.914062 706.65625 372.300781 C 708.015625 373.050781 709.417969 373.660156 710.914062 374.066406 C 712.566406 374.511719 714.332031 374.710938 716.039062 374.699219 C 716.894531 374.6875 717.757812 374.617188 718.613281 374.605469 C 719 374.59375 719.375 374.605469 719.75 374.605469 C 719.820312 374.335938 719.863281 374.078125 719.957031 373.820312 C 720.507812 372.277344 721.503906 370.957031 722.835938 369.996094 C 723.386719 369.597656 724.113281 369.296875 724.742188 369.074219 C 724.882812 369.027344 725.023438 369.003906 725.164062 368.980469 C 728.710938 366.640625 732.207031 364.242188 735.625 361.726562 C 741.402344 357.492188 746.96875 353.011719 752.339844 348.296875 Z M 733.574219 257.707031 C 734.335938 257.789062 735.085938 257.917969 735.820312 258.105469 C 736.40625 258.257812 737.039062 258.433594 737.636719 258.664062 C 737.777344 257.355469 738.582031 256.269531 738.265625 254.933594 C 738.136719 254.382812 738.78125 253.730469 739.320312 254.125 C 740.5 255.027344 740.347656 256.382812 740.253906 257.71875 C 740.21875 258.210938 739.941406 259.050781 740.183594 259.519531 C 740.417969 259.964844 741.25 259.90625 741.671875 259.929688 C 742.992188 259.988281 744.328125 259.882812 745.636719 259.636719 C 745.660156 259.507812 745.683594 259.378906 745.707031 259.261719 C 746.023438 257.742188 747.964844 257.730469 748.75 258.734375 C 748.902344 258.675781 749.066406 258.628906 749.214844 258.570312 C 750.339844 258.105469 751.484375 257.496094 752.445312 256.746094 C 753.207031 256.152344 754.234375 255.179688 754.082031 254.101562 C 753.953125 253.167969 752.925781 252.546875 752.375 251.847656 C 751.800781 251.109375 751.21875 250.300781 751.054688 249.378906 C 750.714844 249.726562 750.339844 250.054688 749.917969 250.359375 C 748.398438 251.484375 746.5625 252.277344 744.710938 252.6875 C 742.558594 253.167969 740.40625 253.144531 738.265625 252.605469 C 737.25 252.347656 736.21875 251.984375 735.355469 251.378906 C 735.332031 251.367188 735.308594 251.34375 735.285156 251.320312 C 735.320312 253.507812 734.546875 255.707031 733.574219 257.707031 Z M 757.300781 343.792969 C 765.558594 336.09375 773.222656 327.777344 780.042969 318.746094 C 788.535156 307.480469 795.636719 295.234375 800.878906 282.203125 C 797.53125 278.75 794.324219 275.171875 791.296875 271.453125 C 781.820312 259.824219 773.949219 246.78125 768.683594 232.730469 C 763.945312 237.445312 759.136719 242.089844 754.304688 246.675781 C 753.964844 247.003906 753.59375 247.132812 753.21875 247.144531 C 753.183594 247.214844 753.136719 247.285156 753.113281 247.355469 C 752.972656 247.703125 752.984375 247.691406 753.066406 247.984375 C 753.453125 249.203125 754.386719 249.949219 755.148438 250.933594 C 755.886719 251.890625 756.527344 252.96875 756.574219 254.207031 C 756.632812 255.589844 755.921875 256.851562 755.019531 257.847656 C 753.90625 259.0625 752.410156 260.035156 750.832031 260.769531 C 755.429688 275.839844 757.628906 291.769531 758.328125 307.480469 C 758.878906 319.613281 758.492188 331.742188 757.300781 343.792969 Z M 596.445312 286.777344 C 596.527344 287.011719 596.5625 287.246094 596.621094 287.476562 C 597.019531 287.476562 597.417969 287.453125 597.816406 287.464844 C 598.691406 287.464844 599.570312 287.546875 600.457031 287.546875 C 602.109375 287.546875 603.804688 287.371094 605.417969 286.988281 C 606.917969 286.625 608.34375 286.097656 609.722656 285.417969 C 610.460938 285.058594 611.222656 284.742188 611.957031 284.378906 C 612.332031 284.191406 612.660156 283.957031 612.976562 283.6875 C 612.929688 283.253906 613.058594 282.789062 613.480469 282.390625 C 617.234375 278.820312 620.953125 275.21875 624.628906 271.558594 C 632.101562 264.117188 639.355469 256.417969 646.011719 248.230469 C 652.65625 240.054688 658.753906 231.46875 664.320312 222.53125 C 668.53125 215.769531 672.277344 208.726562 675.421875 201.425781 C 674.535156 200.386719 673.644531 199.332031 672.777344 198.269531 C 660.097656 182.664062 650.257812 164.542969 645.742188 144.855469 C 641.308594 125.519531 641.449219 104.859375 647.601562 85.90625 C 647.988281 84.738281 648.386719 83.566406 648.820312 82.410156 C 643.34375 78.785156 637.484375 75.753906 631.367188 73.414062 C 615.339844 67.261719 597.59375 65.867188 580.757812 69.074219 C 564.019531 72.257812 548.003906 79.777344 535.578125 91.546875 C 522.078125 104.332031 513.878906 121.574219 510.824219 139.8125 C 507.664062 158.601562 509.921875 178.21875 516.253906 196.128906 C 522.722656 214.46875 533.847656 231.1875 546.960938 245.445312 C 560.039062 259.671875 575.121094 271.757812 591.367188 282.167969 C 591.519531 282.191406 591.671875 282.226562 591.835938 282.285156 C 592.492188 282.53125 593.195312 282.777344 593.765625 283.183594 C 595.007812 284.097656 595.941406 285.3125 596.445312 286.777344 Z M 606.625 297.820312 C 606.261719 296.308594 605.910156 294.8125 605.558594 293.292969 C 605.089844 291.246094 608.109375 290.402344 608.707031 292.425781 C 609.152344 293.925781 609.570312 295.433594 610.003906 296.941406 C 610.273438 296.847656 610.542969 296.765625 610.800781 296.660156 C 611.921875 296.191406 613.070312 295.585938 614.027344 294.835938 C 614.789062 294.238281 615.820312 293.269531 615.667969 292.191406 C 615.539062 291.257812 614.507812 290.636719 613.957031 289.933594 C 613.386719 289.199219 612.800781 288.390625 612.636719 287.464844 C 612.296875 287.816406 611.921875 288.144531 611.5 288.449219 C 609.980469 289.570312 608.144531 290.367188 606.296875 290.777344 C 604.144531 291.257812 601.992188 291.234375 599.851562 290.695312 C 598.832031 290.4375 597.804688 290.074219 596.9375 289.46875 C 596.914062 289.457031 596.890625 289.433594 596.867188 289.410156 C 596.878906 291.597656 596.105469 293.808594 595.136719 295.808594 C 595.894531 295.890625 596.644531 296.019531 597.382812 296.203125 C 597.964844 296.355469 598.597656 296.53125 599.195312 296.765625 C 599.335938 295.457031 600.144531 294.367188 599.828125 293.035156 C 599.699219 292.484375 600.339844 291.828125 600.878906 292.226562 C 602.0625 293.128906 601.910156 294.484375 601.816406 295.820312 C 601.78125 296.308594 601.5 297.152344 601.746094 297.621094 C 601.980469 298.066406 602.808594 298.007812 603.230469 298.03125 C 604.378906 298.078125 605.5 297.996094 606.625 297.820312 Z M 704.480469 434.59375 C 708.367188 439.074219 712.414062 443.964844 715.40625 449.296875 C 712.929688 439.519531 710.902344 429.585938 709.453125 419.609375 C 708.691406 414.332031 708.15625 409.023438 707.664062 403.710938 C 707.183594 398.46875 706.644531 393.125 706.960938 387.847656 C 706.597656 387.742188 706.261719 387.625 705.921875 387.496094 C 703.324219 386.515625 700.527344 384.96875 698.960938 382.597656 C 698.199219 381.4375 697.859375 380.046875 698.1875 378.6875 C 698.480469 377.484375 699.277344 376.394531 700.058594 375.472656 C 700.726562 374.6875 701.710938 373.773438 701.800781 372.664062 C 701.824219 372.417969 701.757812 372.160156 701.640625 371.914062 C 701.277344 371.890625 700.914062 371.738281 700.597656 371.402344 C 696.84375 367.445312 693.097656 363.46875 689.425781 359.433594 C 674.289062 342.796875 659.242188 325.332031 648.351562 305.539062 C 641.777344 293.597656 636.628906 280.972656 633.226562 267.882812 C 627.539062 273.617188 621.726562 279.21875 615.878906 284.765625 C 615.539062 285.09375 615.164062 285.21875 614.789062 285.230469 C 614.753906 285.300781 614.707031 285.371094 614.683594 285.441406 C 614.542969 285.792969 614.554688 285.78125 614.636719 286.074219 C 615.023438 287.292969 615.960938 288.039062 616.71875 289.023438 C 617.457031 289.980469 618.101562 291.058594 618.148438 292.296875 C 618.207031 293.679688 617.492188 294.941406 616.589844 295.9375 C 615.246094 297.410156 613.339844 298.519531 611.398438 299.292969 C 612.320312 300.683594 613.316406 302.019531 614.15625 303.46875 C 615.105469 305.105469 616.050781 306.746094 616.976562 308.394531 C 618.835938 311.703125 620.542969 315.085938 622.324219 318.429688 C 625.84375 325.050781 629.519531 331.605469 633.273438 338.109375 C 646.679688 361.351562 661.875 383.578125 678.652344 404.519531 C 686.945312 414.859375 695.824219 424.605469 704.480469 434.59375 Z M 712.882812 473.035156 C 712.824219 473 712.765625 472.964844 712.71875 472.917969 C 712.695312 472.929688 712.683594 472.953125 712.660156 472.964844 C 708.691406 474.871094 705.652344 478.320312 704.015625 482.355469 C 704.351562 482.148438 704.679688 481.9375 705.007812 481.714844 C 706.351562 480.777344 707.59375 479.691406 708.726562 478.507812 C 710.34375 476.859375 711.722656 475.011719 712.882812 473.035156 Z M 704.457031 583.582031 C 703.78125 580.351562 703.664062 576.925781 704.304688 573.730469 C 701.066406 575.8125 698.808594 579.042969 698.550781 582.996094 C 698.257812 587.582031 700.351562 591.992188 702.84375 595.699219 C 707.628906 602.835938 714.4375 608.570312 718.25 616.371094 C 718.296875 616.464844 718.332031 616.546875 718.378906 616.640625 C 717.6875 613.070312 716.589844 609.5625 714.953125 606.195312 C 711.335938 598.71875 706.179688 591.839844 704.457031 583.582031 Z M 720.917969 567.460938 C 720.027344 566.433594 719.1875 565.378906 718.378906 564.277344 C 715.5 564.371094 712.589844 565.847656 710.472656 567.976562 C 713.839844 567.144531 717.480469 566.886719 720.917969 567.460938 Z M 712.941406 532.589844 C 712.320312 536.566406 712.34375 540.648438 713.066406 544.695312 C 714.179688 550.804688 716.707031 556.429688 720.179688 561.460938 C 720.402344 561.484375 720.625 561.53125 720.847656 561.578125 C 718.296875 557.214844 716.34375 552.523438 715.011719 547.644531 C 713.699219 542.753906 713 537.679688 712.941406 532.589844 Z M 716.332031 510.082031 C 716.0625 509.367188 715.804688 508.65625 715.558594 507.929688 C 715.046875 506.398438 714.613281 504.828125 714.25 503.25 C 713.535156 500.125 713.101562 496.933594 712.953125 493.726562 C 712.320312 500.089844 713.476562 506.539062 716.308594 512.492188 C 716.34375 512.410156 716.367188 512.316406 716.402344 512.234375 C 716.789062 511.214844 716.71875 511.089844 716.332031 510.082031 Z M 720.332031 471.40625 C 720.226562 471.558594 720.121094 471.722656 719.992188 471.875 C 719.738281 472.179688 719.433594 472.449219 719.105469 472.683594 C 721.46875 473.851562 723.75 475.222656 725.972656 476.566406 C 727.738281 477.632812 729.515625 478.695312 731.28125 479.773438 C 728.976562 475.609375 725.011719 472.578125 720.332031 471.40625 Z M 858.445312 335.441406 C 858.257812 335.382812 858.070312 335.335938 857.894531 335.265625 C 857.324219 334.996094 856.902344 334.574219 856.609375 334.082031 C 855.71875 333.859375 854.855469 333.488281 853.953125 333.289062 C 852.773438 333.03125 851.578125 332.949219 850.375 332.972656 C 849.519531 332.984375 849.027344 332.035156 849.425781 331.324219 C 850.828125 328.785156 851.847656 325.765625 851.144531 322.839844 C 850.863281 321.683594 850.351562 320.492188 849.589844 319.566406 C 849.460938 319.402344 849.296875 319.238281 849.144531 319.085938 C 844.933594 316.628906 840.78125 314.078125 836.699219 311.402344 C 825.269531 303.925781 814.355469 295.433594 804.539062 285.863281 C 797.027344 302.988281 786.207031 318.535156 773.375 332.140625 C 768.203125 337.628906 762.683594 342.773438 756.914062 347.652344 C 755.253906 362.40625 752.433594 377.039062 748.65625 391.417969 C 742.105469 416.378906 733.238281 440.652344 725.035156 465.113281 C 738.664062 453.519531 755.839844 446.898438 771.433594 438.441406 C 777.5625 435.109375 783.363281 431.308594 789.238281 427.550781 C 793.742188 424.675781 798.292969 421.84375 802.785156 418.929688 C 811.265625 413.445312 819.605469 407.675781 826.976562 400.738281 C 834.816406 393.371094 841.285156 384.785156 846.140625 375.179688 C 852.398438 362.742188 856.140625 349.117188 858.445312 335.441406 Z M 861.722656 335.980469 C 861.734375 335.898438 861.746094 335.816406 861.757812 335.734375 C 861.746094 335.734375 861.722656 335.734375 861.710938 335.734375 C 861.722656 335.816406 861.722656 335.898438 861.722656 335.980469 Z M 870.917969 325.015625 C 870.34375 324.28125 869.757812 323.472656 869.59375 322.550781 C 869.253906 322.898438 868.878906 323.226562 868.460938 323.53125 C 866.9375 324.65625 865.101562 325.449219 863.253906 325.859375 C 861.101562 326.339844 858.949219 326.316406 856.808594 325.777344 C 855.789062 325.519531 854.761719 325.15625 853.894531 324.550781 C 853.871094 324.539062 853.847656 324.515625 853.824219 324.492188 C 853.835938 326.679688 853.0625 328.890625 852.09375 330.890625 C 852.855469 330.972656 853.601562 331.101562 854.339844 331.289062 C 854.925781 331.441406 855.554688 331.617188 856.152344 331.847656 C 856.292969 330.539062 857.101562 329.449219 856.785156 328.117188 C 856.65625 327.566406 857.300781 326.914062 857.835938 327.308594 C 859.019531 328.210938 858.867188 329.566406 858.773438 330.902344 C 858.738281 331.394531 858.457031 332.234375 858.703125 332.703125 C 858.9375 333.148438 859.769531 333.089844 860.1875 333.113281 C 862.75 333.230469 865.371094 332.738281 867.734375 331.742188 C 868.855469 331.277344 870.003906 330.667969 870.964844 329.917969 C 871.722656 329.324219 872.753906 328.351562 872.601562 327.273438 C 872.484375 326.328125 871.464844 325.707031 870.917969 325.015625 Z M 932.132812 145.5 C 922.613281 128.40625 906.503906 115.46875 888.335938 108.496094 C 872.308594 102.34375 854.5625 100.953125 837.726562 104.15625 C 834.933594 104.683594 832.160156 105.351562 829.410156 106.121094 C 830.441406 118.171875 829.398438 130.429688 826.707031 142.152344 C 821.96875 162.8125 811.921875 182.171875 799.039062 198.910156 C 790.886719 209.511719 781.855469 219.429688 772.460938 228.964844 C 772.707031 229.714844 772.941406 230.460938 773.199219 231.210938 C 779.667969 249.554688 790.792969 266.269531 803.90625 280.53125 C 816.984375 294.753906 832.066406 306.839844 848.316406 317.25 C 848.46875 317.273438 848.617188 317.308594 848.78125 317.367188 C 849.4375 317.613281 850.140625 317.859375 850.714844 318.269531 C 851.964844 319.167969 852.902344 320.386719 853.402344 321.847656 C 853.484375 322.082031 853.519531 322.316406 853.578125 322.550781 C 853.976562 322.550781 854.375 322.527344 854.773438 322.539062 C 855.648438 322.539062 856.527344 322.621094 857.417969 322.621094 C 859.066406 322.621094 860.761719 322.445312 862.375 322.058594 C 863.875 321.695312 865.300781 321.167969 866.679688 320.492188 C 867.417969 320.128906 868.179688 319.8125 868.914062 319.449219 C 869.289062 319.261719 869.617188 319.027344 869.933594 318.757812 C 869.886719 318.328125 870.015625 317.859375 870.4375 317.460938 C 874.191406 313.894531 877.910156 310.289062 881.585938 306.628906 C 889.0625 299.1875 896.3125 291.492188 902.96875 283.300781 C 909.613281 275.125 915.710938 266.539062 921.277344 257.601562 C 931.890625 240.570312 939.621094 221.710938 941.867188 201.660156 C 944.03125 182.488281 941.621094 162.53125 932.132812 145.5 Z M 694.222656 333.265625 C 694.09375 333.183594 693.894531 333.160156 693.742188 333.207031 C 693.589844 333.253906 693.449219 333.347656 693.367188 333.488281 C 693.296875 333.628906 693.25 333.804688 693.308594 333.964844 C 693.355469 334.09375 693.425781 334.199219 693.53125 334.28125 C 693.625 334.351562 693.730469 334.386719 693.835938 334.398438 C 693.859375 334.433594 693.871094 334.46875 693.882812 334.503906 C 693.90625 334.574219 693.929688 334.644531 693.964844 334.714844 C 694.023438 334.867188 694.070312 335.007812 694.128906 335.160156 C 694.152344 335.21875 694.246094 335.207031 694.234375 335.148438 C 694.222656 334.984375 694.210938 334.832031 694.210938 334.667969 C 694.199219 334.550781 694.210938 334.433594 694.210938 334.316406 C 694.257812 334.292969 694.304688 334.269531 694.339844 334.234375 C 694.375 334.1875 694.398438 334.152344 694.433594 334.105469 C 694.515625 333.976562 694.539062 333.78125 694.492188 333.628906 C 694.46875 333.476562 694.363281 333.335938 694.222656 333.265625 Z M 800.984375 140.550781 C 800.996094 140.585938 800.9375 140.609375 800.925781 140.574219 C 800.855469 140.433594 800.761719 140.304688 800.679688 140.164062 C 800.867188 140.5625 801.03125 140.972656 801.15625 141.390625 C 801.765625 143.378906 802.035156 146.175781 800.9375 148.035156 C 799.882812 149.816406 798.257812 150.820312 796.234375 151.03125 C 794.222656 151.242188 792.148438 150.796875 790.265625 150.105469 C 789.519531 149.828125 788.757812 149.523438 788.089844 149.078125 C 787.203125 148.480469 786.535156 147.59375 785.878906 146.761719 C 784.628906 145.171875 783.714844 143.425781 783.339844 141.425781 C 783.152344 140.421875 783.058594 139.390625 782.96875 138.375 C 782.863281 137.273438 782.652344 136.152344 782.734375 135.050781 C 782.804688 133.988281 783.128906 132.945312 783.960938 132.222656 C 784.945312 131.378906 786.265625 131.273438 787.507812 131.425781 C 788.96875 131.613281 790.347656 132.1875 791.683594 132.804688 C 793.0625 133.449219 794.453125 134.117188 795.789062 134.851562 C 798.046875 136.140625 800.28125 137.929688 800.984375 140.550781 Z M 799.4375 141.273438 C 799.0625 140.269531 798.492188 139.296875 797.800781 138.46875 C 797.460938 138.058594 797.085938 137.683594 796.6875 137.332031 C 796.257812 136.945312 795.894531 136.480469 795.4375 136.117188 C 795.003906 135.894531 794.570312 135.671875 794.140625 135.460938 C 792.863281 134.863281 791.566406 134.292969 790.253906 133.800781 C 788.945312 133.308594 787.425781 132.863281 786.019531 133.203125 C 783.960938 133.707031 784.511719 136.105469 784.652344 137.683594 C 784.792969 139.273438 784.863281 140.890625 785.328125 142.421875 C 785.890625 144.222656 787.074219 145.765625 788.335938 147.136719 C 789.25 148.128906 790.640625 148.585938 791.929688 148.914062 C 793.460938 149.3125 795.191406 149.582031 796.757812 149.242188 C 798.175781 148.9375 799.484375 147.777344 799.871094 146.351562 C 800.28125 144.796875 799.988281 142.773438 799.4375 141.273438 Z M 799.4375 141.273438 " fill-opacity="1" fill-rule="nonzero"/></g></svg>