<svg version="1.1" id="Layer_1" xmlns="http://www.w3.org/2000/svg" xmlns:xlink="http://www.w3.org/1999/xlink" x="0px" y="0px"
	 width="100%" viewBox="0 0 1024 576" enable-background="new 0 0 1024 576" xml:space="preserve">
<path fill="#000000" opacity="1.000000" stroke="none" 
	d="
M311.028931,357.128510 
	C286.006714,348.008453 270.775696,330.172180 262.464844,305.782928 
	C259.776611,297.893951 257.221222,289.982697 256.205963,281.669434 
	C256.025146,280.188782 255.879135,278.671509 256.001465,277.194702 
	C256.140350,275.517761 256.653107,273.851532 258.408783,273.105194 
	C260.234406,272.329071 261.601166,273.348083 262.881073,274.494720 
	C266.744720,277.955933 270.034302,281.939941 273.280090,285.959930 
	C282.716797,297.647644 292.914764,308.629211 304.126068,318.625092 
	C311.099396,324.842468 318.615692,330.420624 326.844147,334.866211 
	C334.433624,338.966583 342.382904,340.630157 351.171967,336.240662 
	C348.583221,332.856110 345.154724,331.139282 341.965881,329.283051 
	C323.813385,318.716400 309.286163,304.003510 298.992065,286.201019 
	C285.187927,262.328339 280.903290,236.003647 286.073059,208.555710 
	C286.814941,204.616943 288.261505,200.886444 290.263763,197.370499 
	C294.481995,189.963303 298.430603,189.643738 303.046722,196.955414 
	C309.894684,207.802124 316.217926,218.984482 320.880646,230.979614 
	C326.262146,244.823807 333.053436,257.953644 339.852600,271.135986 
	C343.785614,278.761475 348.579895,286.058380 350.955933,294.538635 
	C351.891815,297.878784 355.189117,300.599915 357.705597,302.648132 
	C362.305847,306.392365 366.473633,310.638245 370.804596,314.586700 
	C376.225250,319.528595 382.960999,322.094971 388.379242,326.295227 
	C392.435303,329.439453 397.041290,333.268890 400.112366,338.019806 
	C401.843781,340.698242 403.803650,343.169769 408.093262,339.388794 
	C408.093262,343.184814 408.025330,345.625946 408.108032,348.061951 
	C408.260773,352.560791 408.603149,356.892120 411.917969,360.593567 
	C414.175934,363.114868 414.661041,366.755402 414.842285,370.008087 
	C415.327698,378.719147 420.018982,384.881256 426.205536,390.250031 
	C427.846222,391.673859 429.652405,392.866852 430.546844,394.959808 
	C433.642944,402.204895 439.944580,405.540924 446.848175,407.877930 
	C451.704132,409.521790 456.506531,409.839813 460.943970,406.048248 
	C463.741302,403.658112 466.873169,402.657654 468.756866,407.546783 
	C469.468750,409.394409 471.692688,409.535767 473.364594,410.228760 
	C475.572815,411.143951 478.201660,411.295685 479.820190,413.428101 
	C478.324371,415.724182 475.415985,414.334900 473.156738,417.213074 
	C479.713287,424.392914 489.566589,426.093414 497.440613,431.420227 
	C495.762970,432.432526 493.726929,432.337219 491.940216,431.970184 
	C487.474335,431.052704 486.084412,433.354187 485.384705,437.189148 
	C482.865356,450.997101 482.326111,464.885468 483.288452,478.860168 
	C483.539062,482.499146 485.778687,485.345093 487.092438,488.558929 
	C488.352966,491.642548 489.910156,494.672394 489.739899,498.098785 
	C489.652161,499.863983 489.501343,502.090210 487.142151,502.365631 
	C484.986938,502.617218 484.480347,500.554169 484.024445,499.047760 
	C482.920135,495.398804 482.060669,491.675720 480.954865,487.413361 
	C478.709137,491.542572 479.719299,496.025757 478.030884,499.799377 
	C477.195465,501.666534 477.160828,504.814148 474.255737,504.130188 
	C471.441498,503.467590 471.823242,500.524353 472.086182,498.211761 
	C472.706360,492.757538 473.237610,487.282318 476.001709,482.327148 
	C476.534424,481.372162 476.631714,480.086548 476.654266,478.947998 
	C476.950867,463.977966 477.480835,449.018921 478.586853,434.084198 
	C478.790344,431.336182 477.515228,429.790527 474.886993,428.972137 
	C457.998413,423.713440 442.769348,415.285187 428.756714,404.579041 
	C419.870575,397.789795 411.005768,390.735809 404.420441,381.758636 
	C398.228607,373.317902 389.470978,370.537323 380.643738,370.547943 
	C356.573547,370.576874 333.787323,365.265808 311.028931,357.128510 
z"/>
<path fill="#000000" opacity="1.000000" stroke="none" 
	d="
M616.770508,272.210571 
	C610.877014,256.831757 604.136169,241.937286 603.326477,225.696640 
	C602.736877,213.871643 599.984741,202.744568 596.717041,191.582764 
	C596.670349,191.423157 596.649780,191.255966 596.604248,191.095947 
	C590.792114,170.662292 573.115295,162.555450 553.645813,171.301804 
	C551.752380,172.152420 549.178223,174.930969 547.628113,171.995041 
	C546.238403,169.362961 549.347351,167.684448 551.392517,166.402710 
	C555.284119,163.963776 561.111572,164.345047 562.062134,157.288589 
	C565.409302,166.104446 572.151428,161.061646 577.427307,164.366425 
	C575.271912,153.185532 567.144592,147.063797 562.249573,138.244293 
	C568.500183,138.664124 571.503174,142.912445 576.260376,145.925919 
	C576.732544,137.461960 578.591125,129.971146 579.726807,122.356331 
	C580.927612,114.304527 582.822449,106.343010 582.869385,98.128479 
	C582.879578,96.334167 583.359192,94.486115 583.927246,92.763268 
	C585.082275,89.260582 587.424316,87.825874 590.835571,89.859619 
	C594.451660,92.015564 598.296204,94.091339 599.581421,98.521767 
	C597.556396,100.549637 595.870850,99.601318 594.219055,98.852692 
	C592.515503,98.080612 590.953674,97.979752 589.862854,99.774796 
	C588.906860,101.348083 588.951477,103.002380 590.125610,104.438011 
	C591.905823,106.614738 593.794434,108.702850 595.631775,110.822563 
	C597.894653,110.691391 598.707520,108.818420 599.822998,107.507805 
	C602.973877,103.805603 604.348022,103.812630 606.953674,108.075211 
	C611.666748,115.785255 613.471436,124.306358 614.334351,133.223572 
	C616.409363,154.667267 611.898315,175.288849 607.137573,195.915665 
	C606.390137,199.154083 605.496094,202.431503 605.368103,205.718094 
	C605.256042,208.593338 603.028259,213.254333 609.329041,212.891068 
	C609.683411,212.870636 610.400452,213.838898 610.434937,214.379761 
	C610.853210,220.940002 615.997742,224.694046 619.326843,229.514648 
	C622.863892,234.636200 623.937134,239.822174 619.774597,245.116531 
	C617.382019,248.159714 619.498169,250.861481 620.408997,253.532608 
	C623.561646,262.778687 623.506714,262.468811 632.491577,258.236633 
	C643.216003,253.185074 651.659241,245.745972 658.164612,235.949768 
	C659.276184,234.275925 660.501038,232.683533 662.346008,231.740067 
	C664.433350,230.672699 666.630859,229.325470 668.781799,231.366196 
	C670.886169,233.362717 670.636658,235.838638 669.553101,238.296844 
	C668.083557,241.630219 665.372070,243.802887 662.573669,245.957016 
	C657.236938,250.065079 651.083679,253.095535 645.408813,258.633728 
	C652.153748,259.235229 657.458679,257.265717 662.791504,255.922745 
	C672.446106,253.491425 680.229492,247.829407 687.257629,241.012482 
	C690.143311,238.213562 693.182800,235.620071 696.882751,233.958847 
	C698.516907,233.225159 700.305603,232.008209 702.052734,233.302338 
	C704.029785,234.766724 703.336853,236.940765 702.744507,238.823517 
	C698.582581,252.051086 692.137939,263.945984 682.172791,273.771088 
	C679.965027,275.947784 677.861755,278.230408 676.057617,280.852783 
	C693.280945,275.822968 703.448486,260.137115 719.403503,252.918808 
	C706.507019,265.064880 696.318420,279.155884 686.752869,294.166321 
	C690.548645,295.226196 692.380432,292.305511 694.679321,290.342499 
	C697.015686,292.352600 696.171936,295.006531 694.444275,295.232056 
	C684.007263,296.594513 681.664124,306.237213 676.014648,312.464600 
	C675.810974,312.689056 675.482727,312.800476 675.122620,313.019196 
	C673.888245,311.402435 676.679382,309.476959 674.831116,308.068970 
	C673.022217,306.690979 671.370728,308.423340 669.629883,308.599060 
	C666.526855,308.912262 663.433105,308.806915 660.631348,310.879059 
	C657.947021,312.864349 657.188232,315.205719 657.797424,318.226135 
	C658.513855,321.777985 661.116821,321.129669 663.648987,320.868073 
	C665.436096,320.683441 667.257690,320.832367 669.142517,320.832367 
	C666.674805,330.692749 635.503479,349.792816 622.442261,342.140289 
	C620.899475,342.457001 620.772461,344.672180 618.572632,344.749603 
	C623.259888,320.516388 627.228516,296.337311 616.770508,272.210571 
z"/>
<path fill="#000000" opacity="1.000000" stroke="none" 
	d="
M519.877319,175.985779 
	C532.205322,176.396469 544.067017,176.778564 556.466187,177.177979 
	C554.810791,181.709641 551.665466,183.902802 548.802124,186.263870 
	C544.945374,189.444077 542.187134,192.916321 542.026489,198.372849 
	C541.911072,202.291794 540.652344,206.221130 539.592346,210.059860 
	C536.574829,220.987534 527.302124,225.237228 517.141968,220.274338 
	C512.066284,217.795044 507.138062,214.994583 502.253479,212.150009 
	C498.840057,210.162186 495.846771,207.634918 491.305756,208.650421 
	C489.285339,209.102264 486.868896,207.822433 486.465515,205.266968 
	C486.105621,202.987045 488.103760,202.074127 489.833191,201.563019 
	C498.351624,199.045471 502.420563,192.611832 505.453766,184.867294 
	C509.116669,175.514816 509.481445,175.498428 519.877319,175.985779 
z"/>
<path fill="#000000" opacity="1.000000" stroke="none" 
	d="
M418.451660,213.390350 
	C419.613434,222.643494 416.824371,231.351303 417.296509,240.058792 
	C418.078491,254.480804 422.380127,267.647583 434.718689,276.753479 
	C438.564209,279.591461 441.772675,282.670624 442.507446,287.804962 
	C443.021912,291.399872 446.281769,293.945618 446.647278,297.850861 
	C447.027374,301.911591 446.720123,305.461121 443.507172,308.315186 
	C441.303436,310.272797 441.264679,312.900116 441.010101,315.610962 
	C440.256714,323.633820 435.594971,329.841125 431.262970,337.069153 
	C427.737915,331.619263 434.056610,328.033142 432.084686,323.516327 
	C430.386261,323.184937 428.511993,326.026642 426.830994,323.305481 
	C426.914612,320.726074 428.962860,319.380432 430.831757,318.132996 
	C433.886597,316.093903 435.496948,312.884521 437.294128,310.004517 
	C438.921143,307.397125 437.731903,304.216278 435.147583,302.594879 
	C432.745972,301.088074 432.137970,299.591919 432.656982,296.901154 
	C433.378265,293.161499 429.280426,290.900726 429.309570,287.212006 
	C426.174225,286.984955 423.142914,286.132080 420.297821,288.444672 
	C419.464081,289.122345 417.552246,289.147675 416.445496,288.701233 
	C411.084961,286.538635 405.510101,285.070343 400.089325,283.803986 
	C399.605804,280.887085 401.696442,280.710632 403.056702,280.042480 
	C411.881592,275.707611 413.239319,273.000153 411.162903,263.434387 
	C409.044769,253.676422 407.115662,243.915085 406.897797,233.859650 
	C406.466827,213.968170 413.674896,196.522766 423.540131,179.815689 
	C426.861481,174.190872 430.998169,169.248062 435.161682,164.285675 
	C436.465057,162.732193 437.702942,161.219864 439.936859,161.024216 
	C441.331177,162.350372 440.550140,163.506149 439.558990,164.396729 
	C434.101410,169.300446 430.330292,175.542511 425.904236,181.273788 
	C420.989105,187.638351 421.074280,195.246948 420.006927,202.598587 
	C419.505463,206.052673 419.022308,209.509430 418.451660,213.390350 
z"/>
<path fill="#000000" opacity="1.000000" stroke="none" 
	d="
M561.326660,475.277161 
	C560.036011,480.452850 559.716492,485.635162 556.246216,489.826477 
	C553.921021,479.446259 561.032166,470.358276 560.274292,460.246429 
	C559.524475,450.242676 558.721008,440.242981 557.919678,429.966492 
	C554.911743,428.798584 553.849243,425.351990 553.065125,421.931641 
	C552.650940,420.125183 554.685120,419.682007 555.901306,418.922455 
	C558.558472,417.263031 560.471924,418.096344 561.129761,420.994324 
	C563.807800,432.791992 566.946045,444.550507 565.616028,456.850708 
	C565.093201,461.686584 565.088135,466.450287 566.815613,471.105286 
	C568.513550,475.680450 568.749939,480.534760 569.000671,485.321045 
	C569.116943,487.537842 568.708740,490.630432 565.889160,490.838898 
	C562.666992,491.077087 563.125671,487.868439 562.593445,485.703125 
	C561.699280,482.065002 563.184021,478.428406 562.445618,474.812256 
	C562.420471,474.689026 562.188293,474.487305 562.139404,474.509888 
	C561.875488,474.631927 561.639038,474.813232 561.326660,475.277161 
z"/>
<path fill="#000000" opacity="1.000000" stroke="none" 
	d="
M436.572937,207.284348 
	C435.581970,205.813828 434.181183,204.786728 435.618073,202.523438 
	C441.996521,207.141388 444.854279,201.030350 448.892944,197.951996 
	C449.231628,196.090393 446.502319,195.109253 447.340942,193.069016 
	C449.516449,192.101532 450.605499,194.642593 452.830322,194.419037 
	C454.479370,190.056671 456.566315,190.214859 459.739197,193.737015 
	C461.791870,196.015701 465.404602,195.092239 468.297180,195.696915 
	C472.506134,196.576782 476.660156,197.482697 479.254425,201.475647 
	C477.127716,204.234192 474.686035,203.420959 472.592987,202.796600 
	C458.590302,198.619598 447.827942,202.767380 439.937744,214.982468 
	C438.104706,217.820297 436.025818,220.783371 431.520264,219.656174 
	C431.639954,216.277115 434.495239,215.061035 435.737030,212.852783 
	C436.688080,211.161530 438.528900,209.749252 436.572937,207.284348 
z"/>
<path fill="#000000" opacity="1.000000" stroke="none" 
	d="
M418.770935,331.289612 
	C414.791199,334.915741 410.721710,337.152130 405.282990,335.210022 
	C407.337646,330.685547 414.533783,327.442017 418.109497,329.030426 
	C418.952545,329.404999 419.324707,330.083862 418.770935,331.289612 
z"/>
</svg>