<svg version="1.1" id="Layer_1" xmlns="http://www.w3.org/2000/svg" xmlns:xlink="http://www.w3.org/1999/xlink" x="0px" y="0px"
	 width="100%" viewBox="0 0 1024 576" enable-background="new 0 0 1024 576" xml:space="preserve">
<path fill="#000000" opacity="1.000000" stroke="none" 
	d="
M513.862122,78.849991 
	C514.843750,74.592644 517.460571,76.961777 519.130493,77.856590 
	C522.787415,79.816132 526.506104,81.423111 530.819519,81.798203 
	C529.137695,80.634399 527.455933,79.470589 525.705933,78.259605 
	C526.986389,77.105972 527.977600,77.688248 528.844849,77.977638 
	C541.600098,82.234062 554.336609,86.647545 567.046753,90.900101 
	C577.121216,94.270821 583.728638,100.829758 591.494263,106.695618 
	C595.916565,110.036064 600.465454,112.990334 604.503418,116.985046 
	C612.161621,124.561287 616.769226,133.838745 620.991943,143.325729 
	C626.218567,155.068115 627.949524,167.879852 630.984802,180.282166 
	C632.037720,184.584412 629.571411,186.166519 625.604736,186.270721 
	C625.359924,191.119736 625.457214,195.972000 624.805176,200.721405 
	C623.373535,211.149338 617.055481,219.208099 611.161804,227.430252 
	C607.809570,232.106857 603.081116,234.390686 597.742188,236.312332 
	C586.234192,240.454453 580.803894,250.673996 575.074524,260.466309 
	C574.040833,262.233093 573.726379,265.023804 570.989197,264.963928 
	C568.172363,264.902283 567.294128,262.251373 566.443909,260.186554 
	C563.943909,254.115158 560.692505,248.642685 556.133728,243.821609 
	C553.584229,241.125351 552.359802,237.694092 554.115723,233.693726 
	C556.338379,228.630020 559.531494,224.788284 565.258728,224.133118 
	C568.523315,223.759674 571.482422,223.199463 573.782654,220.653580 
	C574.584045,219.766617 576.108521,218.764175 576.818542,219.517471 
	C579.869141,222.753983 583.828186,222.439148 587.649231,223.199707 
	C589.742310,223.616318 590.523926,226.233337 589.907959,229.039047 
	C594.371155,227.142258 595.676880,231.829147 599.351013,233.108063 
	C601.142273,229.783447 601.907410,225.840073 604.291626,222.750778 
	C604.686279,222.239441 604.351746,220.525513 603.777466,220.010635 
	C600.193542,216.797577 601.131897,214.249695 603.455811,210.357254 
	C607.348022,203.838043 610.781372,196.771164 612.778503,189.487991 
	C614.167664,184.421860 615.001160,178.302444 611.059631,173.346771 
	C609.230835,171.047363 608.691711,168.256516 607.561951,165.687332 
	C605.696960,161.446365 605.513428,156.471085 601.064758,153.336105 
	C599.022888,151.897202 598.735779,148.692917 598.186646,146.047882 
	C597.022095,140.438980 594.884827,135.232590 590.262878,131.567245 
	C587.920898,129.709961 587.521179,127.672012 588.174561,124.982872 
	C589.599670,119.117500 589.963501,113.775192 582.760071,110.991295 
	C579.856201,109.869057 578.946960,106.398392 577.723694,103.751686 
	C574.444702,96.656898 568.214050,94.226822 561.328613,93.076668 
	C558.177185,92.550240 555.290100,91.963829 552.374023,90.482330 
	C547.768250,88.142387 542.690430,87.671516 538.102051,90.547150 
	C536.290955,91.682198 534.084900,90.645866 531.955872,92.845856 
	C541.401306,94.899567 539.120483,102.524399 540.336121,108.659256 
	C538.156982,109.748001 536.478516,108.635124 534.907593,107.970863 
	C529.550659,105.705696 524.202759,103.391106 519.003174,100.791870 
	C515.751892,99.166573 512.934143,97.147949 511.597321,93.178238 
	C510.365906,89.521591 506.505310,87.860748 503.002319,88.501404 
	C497.009247,89.597450 491.267487,90.180054 485.427002,86.768127 
	C484.568420,92.695572 489.866974,91.215088 491.971313,93.506187 
	C490.491943,96.068321 487.746124,97.539253 485.507446,97.386475 
	C481.291931,97.098770 478.609680,99.351929 475.513062,101.294571 
	C472.682190,103.070503 469.638733,103.992004 466.123901,104.135246 
	C458.500977,104.445892 454.020172,109.394989 451.748779,116.107140 
	C450.201050,120.680870 447.777374,122.118240 442.988403,122.230354 
	C433.705811,122.447678 426.955688,127.989403 421.199585,134.715012 
	C417.260651,139.317337 412.620667,142.869217 406.843964,145.781815 
	C406.476471,142.335434 408.531219,140.518982 410.295685,138.717850 
	C419.706329,129.112000 431.815796,123.236092 442.604736,115.531006 
	C444.465881,114.201836 446.550873,113.186020 448.817841,111.858292 
	C447.572205,111.477257 446.704865,111.211929 444.868256,110.650108 
	C451.393036,105.819092 457.852509,102.402779 464.584290,99.185936 
	C463.105927,97.322266 460.728912,99.771843 459.214905,96.724670 
	C466.156281,95.649628 472.836273,94.615074 479.692566,93.553215 
	C478.592407,89.422104 474.118042,90.350586 471.884430,88.344292 
	C472.432922,86.058327 474.336853,85.427574 475.395660,86.028534 
	C478.539215,87.812752 481.156647,86.421638 483.743195,85.188988 
	C489.820496,82.292747 496.010071,83.058678 501.808441,84.392593 
	C503.628174,83.636459 502.071655,82.283028 503.156372,81.451218 
	C504.176422,80.859207 505.958557,81.477638 506.133972,82.064514 
	C507.771393,87.542458 512.661499,85.396614 516.075928,86.299736 
	C519.147522,87.112167 518.957947,83.291794 521.065063,82.078369 
	C518.832947,80.698982 517.082275,79.458267 514.448120,79.071648 
	C514.018799,78.979477 513.862122,78.849991 513.862122,78.849991 
M572.729431,249.136978 
	C573.395203,243.868896 574.151855,238.609863 574.677185,233.327820 
	C574.859314,231.496490 575.616699,229.005219 572.803223,228.371841 
	C568.692566,227.446457 565.170837,229.442276 562.273071,231.834488 
	C559.765137,233.904785 561.562500,236.673676 562.634521,239.130508 
	C565.101990,244.785385 568.976562,250.010010 568.157104,256.725769 
	C568.107727,257.130646 568.906006,257.638977 569.464722,258.275574 
	C572.371033,255.980087 571.582275,252.625977 572.729431,249.136978 
M580.437317,232.851776 
	C575.736755,238.004135 576.631226,244.320099 576.594543,250.560440 
	C580.748840,246.805283 584.212463,242.718735 586.531494,237.788513 
	C587.355896,236.035858 588.576782,234.004990 586.893799,232.234467 
	C585.069397,230.315033 582.955933,231.172760 580.437317,232.851776 
z"/>
<path fill="#000000" opacity="1.000000" stroke="none" 
	d="
M472.271790,406.930328 
	C470.896210,407.198761 469.804321,407.370880 468.433014,407.587067 
	C471.017487,410.338318 474.011597,410.839508 477.232422,410.984955 
	C481.552399,411.179993 485.865234,411.540619 489.983032,413.080414 
	C492.251312,413.928528 493.088409,415.311218 492.292358,417.724915 
	C490.146088,424.232727 489.622040,431.744171 491.783630,437.376434 
	C495.729218,447.657104 496.066833,458.392212 498.775787,468.724731 
	C500.144928,473.946930 506.434631,477.998688 511.575897,476.897095 
	C515.493591,476.057709 518.775330,476.247803 522.118042,479.874817 
	C524.566040,474.014282 527.160339,468.680298 534.307312,467.796906 
	C532.792664,453.942902 531.289429,440.467896 528.889587,427.106934 
	C528.213623,423.343445 527.241882,419.630035 526.319519,415.915131 
	C525.884277,414.162048 525.733521,412.409454 527.532471,411.518433 
	C534.573120,408.031067 539.552734,401.415131 547.103943,398.725098 
	C548.736206,398.143585 550.265747,396.315857 552.090637,398.003876 
	C553.814331,399.598145 552.554810,401.508453 552.063843,403.147644 
	C551.206421,406.010223 550.042114,408.783783 548.951538,411.573212 
	C543.101929,426.535004 538.800110,441.889099 538.227600,458.026886 
	C537.935059,466.275482 541.994446,471.439667 550.133728,472.346527 
	C557.040222,473.116028 560.376892,476.320160 561.067505,482.890747 
	C561.255005,484.675110 562.882629,486.078888 561.881348,488.751282 
	C559.175232,477.332520 548.522217,476.814819 540.720154,471.853363 
	C537.876526,476.299866 539.379944,480.576324 540.630188,485.396851 
	C536.885864,484.066620 536.189636,481.508942 535.778198,478.711090 
	C535.401001,476.145844 536.633301,473.415497 534.799561,470.492798 
	C523.949097,472.981964 524.935791,482.179688 523.319702,490.877472 
	C519.916016,483.192169 514.932129,479.552216 507.138062,483.563110 
	C505.446045,480.785004 504.469849,477.970184 500.971619,476.820374 
	C495.574585,483.174530 489.221771,489.032440 487.548431,498.404053 
	C485.715302,495.470947 485.715302,495.470947 489.929169,482.238647 
	C485.181824,487.057190 479.675201,491.142548 476.165955,497.165771 
	C474.036102,494.521851 473.730438,493.463745 476.200256,491.160156 
	C482.483490,485.299927 486.712952,477.257538 495.318542,473.531158 
	C492.058990,462.180542 488.982880,450.993011 482.615936,441.071075 
	C478.094025,434.024231 474.716583,426.425812 471.807587,418.619873 
	C471.091888,416.699371 470.226196,415.525299 468.174866,415.048309 
	C465.295563,414.378754 462.479980,413.435120 459.078644,412.446350 
	C461.121582,415.830048 462.844910,418.684448 464.693665,421.746521 
	C458.764587,423.664642 453.240936,421.524811 447.800140,420.707581 
	C438.880493,419.367798 430.595093,416.641388 423.819336,409.693024 
	C418.383698,404.118958 412.441803,399.016357 407.346313,393.065094 
	C404.658386,389.925690 404.914703,387.159668 407.996399,384.324768 
	C411.391266,385.133392 411.642761,389.484100 414.702393,390.403748 
	C416.631836,390.463745 416.849976,388.259705 418.558380,387.881653 
	C422.485596,389.424225 424.349213,394.166870 429.359894,395.363373 
	C432.214264,389.118866 424.114166,389.311676 423.184784,383.587280 
	C429.300568,388.494110 435.231659,388.969757 441.649658,387.740692 
	C443.509521,387.384552 445.885895,389.725647 448.045990,390.840881 
	C447.358673,393.580475 443.967651,392.568146 442.923187,395.535034 
	C446.128601,397.619110 448.693695,401.694366 453.706085,398.207672 
	C454.673920,397.534363 455.611694,397.979095 456.548065,398.337982 
	C461.815094,400.357086 467.045929,402.480286 472.368805,404.339935 
	C474.889801,405.220703 473.800171,405.909424 472.271790,406.930328 
M425.933990,397.522217 
	C425.404480,396.681396 424.981720,395.743439 424.323517,395.019653 
	C422.897095,393.451019 421.416443,391.353821 418.951813,392.903229 
	C416.821655,394.242432 416.941345,396.634552 417.452057,398.766449 
	C418.251831,402.104919 424.604828,406.141846 427.972015,405.396301 
	C434.104797,404.038391 440.076904,403.621765 445.727814,407.109741 
	C446.301300,407.463715 447.004578,407.276154 447.610565,406.213928 
	C443.983429,402.344360 441.050629,397.641357 435.989532,394.420471 
	C434.720123,397.255768 430.275421,397.839691 432.167084,402.038910 
	C428.784332,402.209167 427.937683,399.671600 425.933990,397.522217 
M483.653961,419.403778 
	C479.347076,420.015808 479.317383,420.700806 483.715302,428.199493 
	C483.878937,425.014832 485.015259,422.582977 483.653961,419.403778 
z"/>
<path fill="#000000" opacity="1.000000" stroke="none" 
	d="
M384.499756,353.424988 
	C385.267822,352.119324 385.635040,350.720917 386.514923,350.216125 
	C392.716492,346.658295 391.349701,340.732422 391.412720,335.245789 
	C391.423553,334.302216 391.614502,333.334320 390.309692,332.800964 
	C387.404541,331.613403 388.662598,329.586212 389.627502,327.860352 
	C392.229980,323.205658 395.079376,318.668152 395.019867,313.043823 
	C395.014923,312.575989 395.233215,312.026001 395.522034,311.646942 
	C399.172577,306.855347 401.907806,301.610077 403.949677,295.930237 
	C404.442444,294.559509 405.505707,292.991974 407.223602,292.255798 
	C410.339111,295.017212 410.276398,298.164337 408.669067,301.658051 
	C406.250000,306.916138 403.271210,311.943695 401.770905,317.179230 
	C402.595062,319.534363 404.778656,318.141602 405.988892,319.741211 
	C403.652832,321.998993 405.090149,324.943359 405.864777,327.130432 
	C409.035400,336.083099 401.913361,339.264862 397.207794,343.844330 
	C396.051910,344.969238 396.533234,346.369293 396.493927,347.545074 
	C396.306244,353.159973 392.113647,359.156799 386.787933,360.878693 
	C385.544617,361.280640 383.968506,361.180939 383.723999,362.894745 
	C383.493439,364.510651 384.734589,365.358032 385.952759,365.860596 
	C391.568359,368.177307 392.309937,375.172974 397.562775,377.847290 
	C398.374115,378.260376 398.767426,379.302979 399.827881,379.661041 
	C404.988464,381.403595 405.717133,383.150146 403.486908,388.359100 
	C400.258270,388.238922 399.116333,384.423706 395.859924,383.852234 
	C394.798981,386.084778 396.022797,388.126251 396.374207,390.086914 
	C396.713196,391.978546 396.721954,393.289093 394.786224,394.125336 
	C392.828033,394.971375 392.054718,393.423706 391.177795,392.311707 
	C388.463043,388.869141 386.747375,384.914978 385.321686,380.788391 
	C383.926422,376.749847 383.077393,372.477081 380.750153,368.763580 
	C378.228668,369.273560 378.115997,371.437592 377.583191,372.984955 
	C371.648010,390.221008 360.566223,404.171722 348.981293,417.759552 
	C343.896149,423.723846 336.478180,426.459747 329.877777,430.282227 
	C328.773560,430.921722 327.395905,431.241730 325.998901,429.684387 
	C328.198578,426.145630 333.447479,426.634033 335.547607,422.381958 
	C331.096924,422.049591 331.667419,419.331573 332.341431,416.408966 
	C336.900665,396.639740 342.013184,377.020447 348.185822,357.688629 
	C348.877258,355.523071 349.530182,353.008575 353.132782,353.909821 
	C353.737183,358.555756 353.325867,363.046112 351.375031,367.376740 
	C350.705048,368.864197 349.550354,370.467163 351.405212,371.844330 
	C353.238464,373.205353 354.793884,372.525665 356.160370,370.880188 
	C356.781097,370.132782 357.625610,369.067261 358.407349,369.033173 
	C370.031250,368.525787 373.136810,359.098022 377.313171,350.950836 
	C380.112854,345.489166 384.721588,341.221619 386.834259,335.129822 
	C390.019043,336.269867 389.818634,338.170319 388.875702,340.361053 
	C386.544861,345.776215 383.149567,350.503815 379.157715,354.766205 
	C375.976013,358.163574 374.866455,362.363983 373.876953,366.790009 
	C376.261261,361.492889 380.801727,358.031464 384.499756,353.424988 
z"/>
<path fill="#000000" opacity="1.000000" stroke="none" 
	d="
M610.333435,260.677917 
	C609.023560,258.896362 608.508423,257.207489 610.234192,256.008911 
	C612.234131,254.619904 613.237183,256.587463 614.196472,257.811890 
	C618.472839,263.269989 620.209839,269.617188 620.258728,276.441711 
	C620.287354,280.433075 620.029358,284.426758 619.887512,288.418915 
	C619.863953,289.081818 620.037354,290.020386 619.675903,290.362213 
	C614.541565,295.217316 617.633301,301.251129 617.314758,306.754608 
	C616.991516,312.339691 615.778687,317.749817 614.906250,323.184021 
	C613.808594,330.020905 612.626282,336.879395 611.330994,343.706421 
	C610.966309,345.628265 610.771484,347.649872 607.532349,348.572968 
	C608.239014,343.890350 609.923523,339.637848 608.788696,336.708496 
	C601.576721,349.718719 596.671814,364.770813 589.813416,380.116760 
	C587.991943,376.136505 587.991943,376.136505 589.335938,372.470612 
	C587.207275,372.355743 587.217529,375.375275 584.786133,375.204987 
	C585.310974,371.068390 587.222717,367.446686 588.696045,363.712646 
	C590.285767,359.683777 591.119751,356.010223 586.210327,353.582367 
	C584.019409,352.498871 585.002991,350.680420 585.706482,349.272736 
	C589.702698,341.276642 589.765564,332.291290 592.073547,323.867340 
	C592.903381,320.838684 592.277283,317.170410 591.502258,313.992432 
	C589.847595,307.207306 591.500916,300.939148 593.589294,294.652374 
	C593.783508,294.067749 594.225647,293.258942 594.710022,293.125458 
	C598.780762,292.003723 597.250488,289.330872 596.703735,286.749237 
	C594.609558,276.861450 597.223938,266.787476 595.572571,256.607574 
	C602.195984,261.271484 602.248291,269.697662 606.904236,275.232605 
	C612.844299,282.294189 606.170654,290.084259 608.751221,297.182922 
	C614.069641,294.801147 615.801453,290.697479 615.781616,284.775269 
	C615.759644,278.203918 615.066223,271.888885 613.171692,265.632965 
	C612.628174,263.838104 612.130493,262.132080 610.333435,260.677917 
z"/>
<path fill="#000000" opacity="1.000000" stroke="none" 
	d="
M376.795258,242.680908 
	C381.221832,239.190948 382.233215,239.477554 382.911438,244.397186 
	C383.387756,247.852081 384.089142,251.101471 385.588165,254.366608 
	C387.765198,259.108582 385.272400,262.787048 379.231689,264.719696 
	C379.683716,265.450958 380.228119,266.083374 380.501251,266.816833 
	C381.642029,269.879639 381.050568,272.833649 378.006531,273.990234 
	C374.680115,275.254150 373.380493,272.057709 372.361694,269.728882 
	C371.607178,268.004242 371.698700,265.909454 371.272675,263.028015 
	C369.154144,266.094727 368.993225,269.767639 365.082794,270.429016 
	C362.829895,266.454437 362.370972,262.006500 361.721222,257.207214 
	C359.488922,261.476318 357.256622,265.745422 355.024323,270.014526 
	C355.275269,258.284241 364.316010,251.650894 369.881104,242.644302 
	C372.295624,244.341080 374.517975,246.447830 376.795258,242.680908 
z"/>
<path fill="#000000" opacity="1.000000" stroke="none" 
	d="
M569.964111,380.947876 
	C573.625732,380.643097 576.910461,380.390594 580.198364,380.188965 
	C580.466309,380.172546 580.755554,380.504150 581.158447,380.749146 
	C582.911865,381.331512 578.311523,385.110138 582.977295,384.643005 
	C583.762573,384.564423 583.471863,386.396088 583.088562,387.280792 
	C578.188477,398.589447 569.910278,406.696411 559.130554,412.401276 
	C558.711792,412.622894 558.178040,412.697021 557.696228,412.702850 
	C557.413025,412.706329 557.126587,412.439026 556.526245,412.132477 
	C559.038696,408.530029 562.960205,406.501953 565.781128,403.137238 
	C562.127991,405.143402 558.495239,406.693237 554.881714,404.385559 
	C552.946716,394.106506 562.186035,389.825745 566.087769,382.711517 
	C566.596191,381.784393 568.389832,381.562073 569.964111,380.947876 
z"/>
<path fill="#000000" opacity="1.000000" stroke="none" 
	d="
M400.298706,185.183640 
	C398.751068,193.050079 396.809753,200.252792 390.670929,205.723358 
	C387.863464,208.225174 385.936737,211.697510 383.492950,214.631744 
	C381.923126,216.516617 380.640289,217.908737 377.456268,218.515823 
	C373.294617,219.309341 371.660919,224.841949 369.461884,228.698746 
	C368.511078,230.366257 367.946136,232.253784 366.735229,233.765472 
	C371.091949,211.940155 384.941589,196.432846 400.624207,181.795670 
	C402.060944,183.597137 400.456207,184.015839 400.298706,185.183640 
z"/>
<path fill="#000000" opacity="1.000000" stroke="none" 
	d="
M440.250977,281.268250 
	C441.424866,279.020691 442.419098,277.096985 443.406982,275.169983 
	C443.950897,274.108948 444.786469,272.593597 445.888184,273.172882 
	C449.956085,275.311829 450.726929,271.687653 452.153656,269.697510 
	C457.287048,262.536987 460.262878,253.978775 466.265594,247.397751 
	C468.264130,245.206680 465.207825,243.821701 466.114227,241.636185 
	C470.080292,242.740250 471.906372,246.165710 474.484009,248.772598 
	C473.888306,251.083893 472.022766,252.073685 470.204315,252.610550 
	C464.911194,254.173233 461.481964,257.860321 461.283478,263.323151 
	C461.061676,269.426971 457.442200,273.788513 453.055786,276.718750 
	C448.142365,280.001038 444.312988,283.720581 441.795959,288.948181 
	C441.435730,289.696350 441.006714,290.417419 440.550018,291.111877 
	C439.354401,292.929901 437.886108,295.437744 435.583649,294.119110 
	C432.797607,292.523529 435.369568,290.344910 436.213043,288.587280 
	C437.363312,286.190338 438.771210,283.917053 440.250977,281.268250 
z"/>
<path fill="#000000" opacity="1.000000" stroke="none" 
	d="
M540.479980,179.545502 
	C544.533752,185.395599 548.890381,189.839050 556.587952,188.941406 
	C559.355774,188.618668 561.046021,186.037628 563.835754,186.109558 
	C564.802917,192.713089 557.882385,198.347717 550.859802,196.773682 
	C547.701904,196.065872 544.951233,194.553909 542.714966,192.182571 
	C536.826843,185.938736 532.583008,178.735855 529.291321,169.639694 
	C535.469727,171.126953 537.406067,175.733047 540.479980,179.545502 
z"/>
<path fill="#000000" opacity="1.000000" stroke="none" 
	d="
M470.248413,194.637268 
	C468.630096,189.778336 466.344666,185.496780 466.337646,180.577072 
	C476.619171,185.200073 479.447449,190.415085 479.550415,202.060760 
	C479.590515,206.594421 481.294769,211.037460 474.432892,213.452103 
	C474.511383,206.853821 473.395569,200.661865 470.248413,194.637268 
z"/>
<path fill="#000000" opacity="1.000000" stroke="none" 
	d="
M560.449585,123.433151 
	C556.290710,123.579735 553.106689,122.237305 551.742126,118.577133 
	C550.279785,114.654633 553.392334,111.762970 554.900757,108.584480 
	C555.570740,107.172752 556.968201,107.205315 558.296326,108.083221 
	C560.777527,109.723343 564.025085,119.457466 562.790222,122.109711 
	C562.509033,122.713692 561.483582,122.971130 560.449585,123.433151 
z"/>
<path fill="#000000" opacity="1.000000" stroke="none" 
	d="
M557.222839,371.847656 
	C549.586792,375.063843 547.768433,374.395782 547.330200,368.317139 
	C549.737793,368.076691 552.658325,369.246002 554.311218,366.359955 
	C554.175537,363.745117 551.203674,364.234375 550.082703,362.476807 
	C550.143433,362.121521 550.064453,361.395386 550.326416,361.238556 
	C552.348145,360.028168 551.040527,354.544220 555.751709,356.879669 
	C560.064941,359.017822 561.468384,362.949463 559.179443,367.034515 
	C558.350830,368.513306 557.748413,369.949066 557.222839,371.847656 
z"/>
<path fill="#000000" opacity="1.000000" stroke="none" 
	d="
M415.105774,143.917511 
	C417.581787,144.906235 416.229492,146.728104 415.598969,147.521088 
	C410.279968,154.210495 407.734131,162.977219 400.279724,168.048660 
	C400.030365,168.218307 399.674072,168.230850 397.786926,168.759140 
	C402.794830,159.107651 408.927917,151.632538 415.105774,143.917511 
z"/>
<path fill="#000000" opacity="1.000000" stroke="none" 
	d="
M413.727539,410.859558 
	C414.387573,411.706055 415.222809,412.185303 414.776581,413.169250 
	C408.595703,411.621124 401.896362,401.119568 402.100037,390.734131 
	C407.003510,393.992462 409.075287,398.931061 411.731567,403.284973 
	C412.652588,404.794647 410.165405,404.944031 409.173004,406.103607 
	C410.613831,407.612610 412.062347,409.129639 413.727539,410.859558 
z"/>
<path fill="#000000" opacity="1.000000" stroke="none" 
	d="
M419.883057,295.207458 
	C416.677856,301.310883 413.186798,306.800110 407.814758,310.932037 
	C410.496735,303.829285 412.012512,295.996033 419.933105,292.154602 
	C421.168213,293.156189 420.190002,294.028931 419.883057,295.207458 
z"/>
<path fill="#000000" opacity="1.000000" stroke="none" 
	d="
M514.100952,79.039360 
	C514.689087,79.704338 515.545593,80.086288 515.356934,81.871750 
	C509.014130,80.684349 502.274506,81.187103 496.853088,74.421890 
	C503.598022,73.659805 508.826874,74.440071 513.529419,78.793793 
	C513.862122,78.849991 514.018799,78.979477 514.100952,79.039360 
z"/>
<path fill="#000000" opacity="1.000000" stroke="none" 
	d="
M616.464722,247.561768 
	C617.483093,250.174393 619.893311,251.643555 620.210815,254.943756 
	C615.374939,255.274979 613.808044,251.297226 612.667236,248.535309 
	C611.271301,245.155899 607.127747,242.324951 608.709961,236.862640 
	C612.704407,240.226318 613.905029,244.167191 616.464722,247.561768 
z"/>
<path fill="#000000" opacity="1.000000" stroke="none" 
	d="
M439.185272,177.823425 
	C438.679321,177.209335 438.561005,176.335907 438.979736,176.440277 
	C442.322449,177.273529 444.529236,175.415405 446.780151,173.478668 
	C448.228607,172.232346 449.980438,171.165741 451.498322,173.099625 
	C453.349182,175.457672 450.918335,176.134445 449.670349,177.627121 
	C446.171448,181.811996 442.963226,181.868683 439.185272,177.823425 
z"/>
<path fill="#000000" opacity="1.000000" stroke="none" 
	d="
M378.476318,226.897308 
	C377.010559,230.663422 375.881989,234.312164 371.839417,236.937531 
	C369.264679,229.746643 376.812378,227.076553 377.717590,221.835129 
	C377.970459,223.405014 378.223328,224.974915 378.476318,226.897308 
z"/>
<path fill="#000000" opacity="1.000000" stroke="none" 
	d="
M407.055206,379.367371 
	C406.140137,378.640991 405.533356,378.084503 405.900269,376.542542 
	C411.136414,377.562897 414.708008,381.484436 419.083008,383.936188 
	C414.185516,384.983246 411.397369,380.583221 407.055206,379.367371 
z"/>
<path fill="#000000" opacity="1.000000" stroke="none" 
	d="
M575.156494,363.844238 
	C572.654541,366.324646 570.988098,364.755096 569.850342,362.876709 
	C568.912598,361.328461 570.260254,360.451385 571.684692,360.206543 
	C574.261353,359.763733 576.005371,360.390594 575.156494,363.844238 
z"/>
<path fill="#000000" opacity="1.000000" stroke="none" 
	d="
M472.519501,219.997498 
	C470.509094,218.664566 471.595398,218.056107 472.782928,217.603439 
	C474.617065,216.904312 476.490387,216.416946 478.593628,217.555893 
	C478.230042,222.079910 475.935913,222.015244 472.519501,219.997498 
z"/>
<path fill="#000000" opacity="1.000000" stroke="none" 
	d="
M473.859283,225.569366 
	C473.292877,226.860489 472.844208,228.511337 471.522675,227.692688 
	C470.216797,226.883743 469.351868,225.213333 469.768829,223.491165 
	C469.925354,222.844727 470.796661,221.944443 471.390259,221.906128 
	C473.708832,221.756454 473.689819,223.653534 473.859283,225.569366 
z"/>
<path fill="#000000" opacity="1.000000" stroke="none" 
	d="
M477.088715,242.091492 
	C474.219482,240.424988 477.622803,237.847504 475.258026,235.823822 
	C479.781647,236.341827 479.980286,237.250778 477.088715,242.091492 
z"/>
</svg>